<svg viewBox="210.5 570.0433 380 89.9134" width="5000" height="1183.0710526315788" xmlns="http://www.w3.org/2000/svg" xmlns:xlink="http://www.w3.org/1999/xlink" preserveAspectRatio="none"><defs></defs><style>.a5kldYRpCPfillColor {fill:#7338D2;fill-opacity:1;}.aD6z1nYkhcolor {fill:#020202;fill-opacity:1;}.aIptOCySncolors-0 {fill:#FFFFFF;fill-opacity:1;}.icon3-str {stroke:#7338D2;stroke-opacity:1;}.shapeStroke-str {stroke:#C637A0;stroke-opacity:1;}</style><g opacity="1" transform="rotate(0 210.5 570.0433)">
<svg width="89.9137" height="89.9134" x="210.5" y="570.0433" version="1.1" preserveAspectRatio="none" viewBox="0 0 89.9137 89.9134">
  <rect x="0" y="0" width="89.9137" height="89.9134" class="a5kldYRpCPfillColor shapeStroke-str" style="stroke-width:0;" rx="10px" ry="10px" />
</svg>
</g><g opacity="1" transform="rotate(0 221.7392 584.0288)">
<svg width="67.4353" height="61.9424" x="221.7392" y="584.0288" version="1.1" preserveAspectRatio="none" viewBox="10 15 81.6510009765625 75">
  <g transform="matrix(1 0 0 1 0 0)" class="aIptOCySncolors-0"><path d="M91.651,15H48.349L70,52.5l7.859-13.613C79.255,42.379,80,46.118,80,50c0,16.542-13.458,30-30,30  c-1.32,0-2.61,0.53-3.54,1.46C45.53,82.39,45,83.68,45,85c0,1.31,0.53,2.6,1.46,3.54C47.4,89.47,48.69,90,50,90  c22.056,0,40-17.944,40-40c0-7.584-2.184-15.024-6.207-21.39L91.651,15z"></path><path d="M22.28,61.49c-1.06-2.551-3.99-3.761-6.53-2.7c-2.56,1.06-3.77,3.99-2.71,6.54c0.8,1.92,2.66,3.08,4.62,3.08  c0.64,0,1.29-0.12,1.92-0.38C22.13,66.97,23.34,64.04,22.28,61.49z"></path><path d="M21.72,71.22c-1.95,1.95-1.95,5.12,0,7.07c0.98,0.97,2.26,1.46,3.54,1.46c1.28,0,2.55-0.49,3.53-1.46  c1.95-1.96,1.95-5.12,0-7.07C26.84,69.26,23.67,69.27,21.72,71.22z"></path><path d="M38.52,77.729c-2.55-1.06-5.48,0.15-6.54,2.7c-1.05,2.55,0.16,5.48,2.71,6.53c0.62,0.26,1.27,0.39,1.91,0.39  c1.96,0,3.82-1.16,4.62-3.09C42.28,81.71,41.07,78.78,38.52,77.729z"></path><path d="M18.54,53.53C19.47,52.6,20,51.319,20,50c0-1.32-0.53-2.61-1.46-3.54C17.61,45.53,16.32,45,15,45  c-1.32,0-2.61,0.53-3.54,1.46C10.53,47.39,10,48.68,10,50c0,1.319,0.53,2.6,1.46,3.53C12.4,54.47,13.68,55,15,55  C16.32,55,17.6,54.47,18.54,53.53z"></path></g>
</svg>
</g><g opacity="1" transform="rotate(0 318.3964 570.0433)">
<svg width="272.1036" height="89.9134" x="318.3964" y="570.0433" version="1.1" preserveAspectRatio="none" viewBox="2.8 -29.68 211.95999999999998 70.03999999999999">
  <g transform="matrix(1 0 0 1 0 0)" class="aD6z1nYkhcolor"><path id="id-D6z1nYkh15" d="M41.32-28L48.88-28L39.80 0L31.32 0L25.96-17.04L20.36 0L11.88 0L2.80-28L10.96-28L16.60-10.12L22.52-28L29.80-28L35.44-9.96L41.32-28Z M59.00-22.04Q64.40-22.04 67.24-19.58Q70.08-17.12 70.08-12.04L70.08-12.04L70.08 0L63.00 0L63.00-2.80Q61.36 0.36 56.60 0.36L56.60 0.36Q54.08 0.36 52.24-0.52Q50.40-1.40 49.46-2.90Q48.52-4.40 48.52-6.32L48.52-6.32Q48.52-9.40 50.88-11.10Q53.24-12.80 58.16-12.80L58.16-12.80L62.48-12.80Q62.28-16.24 57.88-16.24L57.88-16.24Q56.32-16.24 54.72-15.74Q53.12-15.24 52.00-14.36L52.00-14.36L49.44-19.52Q51.24-20.72 53.82-21.38Q56.40-22.04 59.00-22.04L59.00-22.04ZM58.72-4.44Q60.04-4.44 61.04-5.08Q62.04-5.72 62.48-6.96L62.48-6.96L62.48-8.84L59.20-8.84Q55.88-8.84 55.88-6.64L55.88-6.64Q55.88-5.64 56.64-5.04Q57.40-4.44 58.72-4.44L58.72-4.44Z M90.08-21.68L97.32-21.68L87.96 0.88Q86.32 4.88 83.96 6.50Q81.60 8.12 78.20 8.12L78.20 8.12Q76.48 8.12 74.74 7.58Q73.00 7.04 71.92 6.16L71.92 6.16L74.56 0.84Q75.20 1.44 76.10 1.78Q77.00 2.12 77.92 2.12L77.92 2.12Q79.00 2.12 79.70 1.68Q80.40 1.24 80.88 0.28L80.88 0.28L71.60-21.68L79.40-21.68L84.72-8.44L90.08-21.68Z M112.92-22.04Q115.88-22.04 118.30-20.68Q120.72-19.32 122.14-16.78Q123.56-14.24 123.56-10.88L123.56-10.88Q123.56-7.52 122.14-4.96Q120.72-2.40 118.30-1.02Q115.88 0.36 112.92 0.36L112.92 0.36Q108.64 0.36 106.52-2.16L106.52-2.16L106.52 0L99.28 0L99.28-29.68L106.88-29.68L106.88-19.80Q109.08-22.04 112.92-22.04L112.92-22.04ZM111.32-5.68Q113.32-5.68 114.60-7.06Q115.88-8.44 115.88-10.88L115.88-10.88Q115.88-13.28 114.60-14.64Q113.32-16 111.32-16L111.32-16Q109.32-16 108.04-14.64Q106.76-13.28 106.76-10.88L106.76-10.88Q106.76-8.44 108.04-7.06Q109.32-5.68 111.32-5.68L111.32-5.68Z M135.84-22.04Q141.24-22.04 144.08-19.58Q146.92-17.12 146.92-12.04L146.92-12.04L146.92 0L139.84 0L139.84-2.80Q138.20 0.36 133.44 0.36L133.44 0.36Q130.92 0.36 129.08-0.52Q127.24-1.40 126.30-2.90Q125.36-4.40 125.36-6.32L125.36-6.32Q125.36-9.40 127.72-11.10Q130.08-12.80 135.00-12.80L135.00-12.80L139.32-12.80Q139.12-16.24 134.72-16.24L134.72-16.24Q133.16-16.24 131.56-15.74Q129.96-15.24 128.84-14.36L128.84-14.36L126.28-19.52Q128.08-20.72 130.66-21.38Q133.24-22.04 135.84-22.04L135.84-22.04ZM135.56-4.44Q136.88-4.44 137.88-5.08Q138.88-5.72 139.32-6.96L139.32-6.96L139.32-8.84L136.04-8.84Q132.72-8.84 132.72-6.64L132.72-6.64Q132.72-5.64 133.48-5.04Q134.24-4.44 135.56-4.44L135.56-4.44Z M163.12 0.36Q159.52 0.36 156.68-1.08Q153.84-2.52 152.26-5.08Q150.68-7.64 150.68-10.88L150.68-10.88Q150.68-14.12 152.26-16.66Q153.84-19.20 156.68-20.62Q159.52-22.04 163.12-22.04L163.12-22.04Q166.80-22.04 169.48-20.46Q172.16-18.88 173.28-16.08L173.28-16.08L167.40-13.08Q165.92-16 163.08-16L163.08-16Q161.04-16 159.70-14.64Q158.36-13.28 158.36-10.88L158.36-10.88Q158.36-8.44 159.70-7.06Q161.04-5.68 163.08-5.68L163.08-5.68Q165.92-5.68 167.40-8.60L167.40-8.60L173.28-5.60Q172.16-2.80 169.48-1.22Q166.80 0.36 163.12 0.36L163.12 0.36Z M192.00 0L185.92-7.60L183.68-5.32L183.68 0L176.08 0L176.08-29.68L183.68-29.68L183.68-14.12L191.44-21.68L200.44-21.68L191.44-12.40L201.20 0L192.00 0Z M2.80 40L2.80 12L16.04 12Q20.64 12 24.20 13.72Q27.76 15.44 29.72 18.60Q31.68 21.76 31.68 26L31.68 26Q31.68 30.24 29.72 33.40Q27.76 36.56 24.20 38.28Q20.64 40 16.04 40L16.04 40L2.80 40ZM10.72 33.68L15.72 33.68Q19.32 33.68 21.50 31.64Q23.68 29.60 23.68 26L23.68 26Q23.68 22.40 21.50 20.36Q19.32 18.32 15.72 18.32L15.72 18.32L10.72 18.32L10.72 33.68Z M46.36 40.36Q42.88 40.36 40.08 38.92Q37.28 37.48 35.70 34.92Q34.12 32.36 34.12 29.12L34.12 29.12Q34.12 25.92 35.70 23.36Q37.28 20.80 40.06 19.38Q42.84 17.96 46.36 17.96L46.36 17.96Q49.88 17.96 52.68 19.38Q55.48 20.80 57.04 23.34Q58.60 25.88 58.60 29.12L58.60 29.12Q58.60 32.36 57.04 34.92Q55.48 37.48 52.68 38.92Q49.88 40.36 46.36 40.36L46.36 40.36ZM46.36 34.32Q48.36 34.32 49.64 32.94Q50.92 31.56 50.92 29.12L50.92 29.12Q50.92 26.72 49.64 25.36Q48.36 24 46.36 24L46.36 24Q44.36 24 43.08 25.36Q41.80 26.72 41.80 29.12L41.80 29.12Q41.80 31.56 43.08 32.94Q44.36 34.32 46.36 34.32L46.36 34.32Z M90.76 18.32L97.44 18.32L89.72 40L82.36 40L78.28 28.20L74.04 40L66.68 40L58.96 18.32L66.16 18.32L70.60 31.44L75.20 18.32L81.68 18.32L86.16 31.56L90.76 18.32Z M113.88 17.96Q117.92 17.96 120.38 20.36Q122.84 22.76 122.84 27.60L122.84 27.60L122.84 40L115.24 40L115.24 28.84Q115.24 24.40 111.68 24.40L111.68 24.40Q109.72 24.40 108.54 25.68Q107.36 26.96 107.36 29.52L107.36 29.52L107.36 40L99.76 40L99.76 18.32L107 18.32L107 20.68Q108.28 19.36 110.04 18.66Q111.80 17.96 113.88 17.96L113.88 17.96Z M127.60 40L127.60 10.32L135.20 10.32L135.20 40L127.60 40Z M151 40.36Q147.52 40.36 144.72 38.92Q141.92 37.48 140.34 34.92Q138.76 32.36 138.76 29.12L138.76 29.12Q138.76 25.92 140.34 23.36Q141.92 20.80 144.70 19.38Q147.48 17.96 151 17.96L151 17.96Q154.52 17.96 157.32 19.38Q160.12 20.80 161.68 23.34Q163.24 25.88 163.24 29.12L163.24 29.12Q163.24 32.36 161.68 34.92Q160.12 37.48 157.32 38.92Q154.52 40.36 151 40.36L151 40.36ZM151 34.32Q153 34.32 154.28 32.94Q155.56 31.56 155.56 29.12L155.56 29.12Q155.56 26.72 154.28 25.36Q153 24 151 24L151 24Q149 24 147.72 25.36Q146.44 26.72 146.44 29.12L146.44 29.12Q146.44 31.56 147.72 32.94Q149 34.32 151 34.32L151 34.32Z M175.52 17.96Q180.92 17.96 183.76 20.42Q186.60 22.88 186.60 27.96L186.60 27.96L186.60 40L179.52 40L179.52 37.20Q177.88 40.36 173.12 40.36L173.12 40.36Q170.60 40.36 168.76 39.48Q166.92 38.60 165.98 37.10Q165.04 35.60 165.04 33.68L165.04 33.68Q165.04 30.60 167.40 28.90Q169.76 27.20 174.68 27.20L174.68 27.20L179 27.20Q178.80 23.76 174.40 23.76L174.40 23.76Q172.84 23.76 171.24 24.26Q169.64 24.76 168.52 25.64L168.52 25.64L165.96 20.48Q167.76 19.28 170.34 18.62Q172.92 17.96 175.52 17.96L175.52 17.96ZM175.24 35.56Q176.56 35.56 177.56 34.92Q178.56 34.28 179 33.04L179 33.04L179 31.16L175.72 31.16Q172.40 31.16 172.40 33.36L172.40 33.36Q172.40 34.36 173.16 34.96Q173.92 35.56 175.24 35.56L175.24 35.56Z M207.16 10.32L214.76 10.32L214.76 40L207.52 40L207.52 37.84Q205.40 40.36 201.16 40.36L201.16 40.36Q198.20 40.36 195.76 38.98Q193.32 37.60 191.90 35.04Q190.48 32.48 190.48 29.12L190.48 29.12Q190.48 25.76 191.90 23.22Q193.32 20.68 195.76 19.32Q198.20 17.96 201.16 17.96L201.16 17.96Q205.04 17.96 207.16 20.20L207.16 20.20L207.16 10.32ZM202.76 34.32Q204.72 34.32 206 32.94Q207.28 31.56 207.28 29.12L207.28 29.12Q207.28 26.72 206.02 25.36Q204.76 24 202.76 24L202.76 24Q200.76 24 199.48 25.36Q198.20 26.72 198.20 29.12L198.20 29.12Q198.20 31.56 199.48 32.94Q200.76 34.32 202.76 34.32L202.76 34.32Z"/></g>
</svg>
</g></svg>